<svg id="visual" viewBox="0 0 1920 1080" width="1920" height="1080" xmlns="http://www.w3.org/2000/svg" xmlns:xlink="http://www.w3.org/1999/xlink" version="1.1"><rect x="0" y="0" width="1920" height="1080" fill="#001220"></rect><path d="M0 725L45.7 729.3C91.3 733.7 182.7 742.3 274.2 754.2C365.7 766 457.3 781 548.8 762.5C640.3 744 731.7 692 823 679.5C914.3 667 1005.7 694 1097 698.5C1188.3 703 1279.7 685 1371.2 694C1462.7 703 1554.3 739 1645.8 755.7C1737.3 772.3 1828.7 769.7 1874.3 768.3L1920 767L1920 1081L1874.3 1081C1828.7 1081 1737.3 1081 1645.8 1081C1554.3 1081 1462.7 1081 1371.2 1081C1279.7 1081 1188.3 1081 1097 1081C1005.7 1081 914.3 1081 823 1081C731.7 1081 640.3 1081 548.8 1081C457.3 1081 365.7 1081 274.2 1081C182.7 1081 91.3 1081 45.7 1081L0 1081Z" fill="#4f4fd7"></path><path d="M0 852L45.7 839.2C91.3 826.3 182.7 800.7 274.2 786.8C365.7 773 457.3 771 548.8 765.8C640.3 760.7 731.7 752.3 823 758.7C914.3 765 1005.7 786 1097 788.2C1188.3 790.3 1279.7 773.7 1371.2 757.7C1462.7 741.7 1554.3 726.3 1645.8 740.8C1737.3 755.3 1828.7 799.7 1874.3 821.8L1920 844L1920 1081L1874.3 1081C1828.7 1081 1737.3 1081 1645.8 1081C1554.3 1081 1462.7 1081 1371.2 1081C1279.7 1081 1188.3 1081 1097 1081C1005.7 1081 914.3 1081 823 1081C731.7 1081 640.3 1081 548.8 1081C457.3 1081 365.7 1081 274.2 1081C182.7 1081 91.3 1081 45.7 1081L0 1081Z" fill="#246adf"></path><path d="M0 894L45.7 885.2C91.3 876.3 182.7 858.7 274.2 852.8C365.7 847 457.3 853 548.8 866.3C640.3 879.7 731.7 900.3 823 892C914.3 883.7 1005.7 846.3 1097 824.8C1188.3 803.3 1279.7 797.7 1371.2 806.2C1462.7 814.7 1554.3 837.3 1645.8 848.7C1737.3 860 1828.7 860 1874.3 860L1920 860L1920 1081L1874.3 1081C1828.7 1081 1737.3 1081 1645.8 1081C1554.3 1081 1462.7 1081 1371.2 1081C1279.7 1081 1188.3 1081 1097 1081C1005.7 1081 914.3 1081 823 1081C731.7 1081 640.3 1081 548.8 1081C457.3 1081 365.7 1081 274.2 1081C182.7 1081 91.3 1081 45.7 1081L0 1081Z" fill="#0080de"></path><path d="M0 967L45.7 967.7C91.3 968.3 182.7 969.7 274.2 956.3C365.7 943 457.3 915 548.8 915.7C640.3 916.3 731.7 945.7 823 950.3C914.3 955 1005.7 935 1097 931.7C1188.3 928.3 1279.7 941.7 1371.2 937.5C1462.7 933.3 1554.3 911.7 1645.8 907C1737.3 902.3 1828.7 914.7 1874.3 920.8L1920 927L1920 1081L1874.3 1081C1828.7 1081 1737.3 1081 1645.8 1081C1554.3 1081 1462.7 1081 1371.2 1081C1279.7 1081 1188.3 1081 1097 1081C1005.7 1081 914.3 1081 823 1081C731.7 1081 640.3 1081 548.8 1081C457.3 1081 365.7 1081 274.2 1081C182.7 1081 91.3 1081 45.7 1081L0 1081Z" fill="#0092d5"></path><path d="M0 962L45.7 960.7C91.3 959.3 182.7 956.7 274.2 958.2C365.7 959.7 457.3 965.3 548.8 966.2C640.3 967 731.7 963 823 973.3C914.3 983.7 1005.7 1008.3 1097 1010.8C1188.3 1013.3 1279.7 993.7 1371.2 983.2C1462.7 972.7 1554.3 971.3 1645.8 980.2C1737.3 989 1828.7 1008 1874.3 1017.5L1920 1027L1920 1081L1874.3 1081C1828.7 1081 1737.3 1081 1645.8 1081C1554.3 1081 1462.7 1081 1371.2 1081C1279.7 1081 1188.3 1081 1097 1081C1005.7 1081 914.3 1081 823 1081C731.7 1081 640.3 1081 548.8 1081C457.3 1081 365.7 1081 274.2 1081C182.7 1081 91.3 1081 45.7 1081L0 1081Z" fill="#249fc7"></path></svg>